<svg width="24" height="24" viewBox="0 0 24 24" fill="none" xmlns="http://www.w3.org/2000/svg">
<path d="M18.3514 8.25303C18.3543 7.4174 18.1934 6.5893 17.8777 5.8156C17.5827 5.07816 17.1462 4.40562 16.5929 3.83594C16.0328 3.26649 15.3637 2.8158 14.6255 2.51081C11.3435 1.12912 7.56086 2.64559 6.14179 5.91197C5.80495 6.68717 5.63399 7.52427 5.63991 8.36948C5.63236 9.2057 5.78925 10.0352 6.10163 10.8109C6.39859 11.5461 6.83487 12.217 7.38644 12.7866C7.9471 13.3543 8.61613 13.8036 9.35379 14.1077C10.1896 14.3653 11.0469 14.5467 11.9154 14.6498C11.9154 14.7823 11.9154 14.8827 11.9154 14.8867C11.7948 16.011 11.4881 17.1075 11.008 18.1313C11.008 18.1313 10.9839 18.1714 10.9759 18.1915C10.8367 18.469 10.6798 18.7373 10.5061 18.9946C10.4499 19.0789 10.3977 19.1673 10.3375 19.2436L10.2893 19.3078C9.8616 19.8688 9.35123 20.3617 8.77563 20.7695C8.71139 20.8096 8.65518 20.8578 8.59094 20.894C8.2403 21.2661 8.15999 21.5712 8.35004 21.8095C8.53473 22.0424 8.79972 22.0625 9.15304 21.8657C10.2808 21.2678 11.3553 20.5746 12.3651 19.7937C13.4694 18.9532 14.4695 17.984 15.3442 16.9065L15.4124 16.8182C16.2919 15.7251 17.0037 14.507 17.5243 13.2042C18.0958 11.7437 18.3807 10.1867 18.3635 8.61845C18.3635 8.55821 18.3635 8.502 18.3635 8.44176C18.3635 8.38153 18.3514 8.3213 18.3514 8.25303Z" fill="#1A1A1A"/>
</svg>
