<svg width="24" height="24" viewBox="0 0 24 24" fill="none" xmlns="http://www.w3.org/2000/svg"><path d="M13.2933 11.9502L19.0086 6.23394C19.1041 6.14169 19.1803 6.03135 19.2327 5.90934C19.2851 5.78734 19.3127 5.65612 19.3138 5.52334C19.315 5.39056 19.2897 5.25888 19.2394 5.13598C19.1891 5.01309 19.1149 4.90143 19.021 4.80754C18.9271 4.71365 18.8154 4.6394 18.6925 4.58911C18.5696 4.53883 18.4379 4.51353 18.3052 4.51469C18.1724 4.51584 18.0412 4.54343 17.9192 4.59584C17.7972 4.64824 17.6868 4.72443 17.5946 4.81994L11.8783 10.5352L6.30522 4.96206C6.21297 4.86655 6.10263 4.79037 5.98063 4.73796C5.85862 4.68555 5.7274 4.65797 5.59462 4.65681C5.46184 4.65566 5.33016 4.68096 5.20727 4.73124C5.08437 4.78152 4.97272 4.85578 4.87883 4.94967C4.78493 5.04356 4.71068 5.15521 4.6604 5.27811C4.61012 5.40101 4.58482 5.53269 4.58597 5.66547C4.58712 5.79825 4.61471 5.92946 4.66712 6.05147C4.71953 6.17347 4.79571 6.28382 4.89122 6.37606L10.4643 11.9492L4.89122 17.5233C4.79571 17.6155 4.71953 17.7259 4.66712 17.8479C4.61471 17.9699 4.58713 18.1011 4.58597 18.2339C4.58482 18.3667 4.61012 18.4983 4.6604 18.6212C4.71068 18.7441 4.78494 18.8558 4.87883 18.9497C4.97272 19.0436 5.08437 19.1178 5.20727 19.1681C5.33017 19.2184 5.46185 19.2437 5.59462 19.2425C5.7274 19.2414 5.85862 19.2138 5.98063 19.1614C6.10263 19.109 6.21298 19.0328 6.30522 18.9373L11.8783 13.3642L17.5946 19.0794C17.6868 19.1749 17.7972 19.2511 17.9192 19.3035C18.0412 19.3559 18.1724 19.3835 18.3052 19.3847C18.4379 19.3858 18.5696 19.3605 18.6925 19.3102C18.8154 19.26 18.9271 19.1857 19.021 19.0918C19.1149 18.9979 19.1891 18.8863 19.2394 18.7634C19.2897 18.6405 19.315 18.5088 19.3138 18.376C19.3127 18.2432 19.2851 18.112 19.2327 17.99C19.1803 17.868 19.1041 17.7577 19.0086 17.6654L13.2933 11.9502Z" fill="#595959"/></svg>